<mxfile host="app.diagrams.net" modified="2023-08-28T23:52:06.543Z" agent="Mozilla/5.0 (Windows NT 10.0; Win64; x64) AppleWebKit/537.36 (KHTML, like Gecko) Chrome/116.0.0.0 Safari/537.36 Edg/116.0.1938.62" etag="Y3rJlIbO3rMEvnn2PPaB" version="21.6.8" type="github">
  <diagram name="PÃ¡gina-1" id="tAN-UEOlvicVygCosi0m">
    <mxGraphModel dx="1379" dy="756" grid="1" gridSize="10" guides="1" tooltips="1" connect="1" arrows="1" fold="1" page="1" pageScale="1" pageWidth="827" pageHeight="1169" math="0" shadow="0">
      <root>
        <mxCell id="0" />
        <mxCell id="1" parent="0" />
        <mxCell id="Ru9ST--nWmIl7IYlQP2i-1" value="" style="rounded=0;whiteSpace=wrap;html=1;" vertex="1" parent="1">
          <mxGeometry x="210" y="130" width="160" height="340" as="geometry" />
        </mxCell>
        <mxCell id="Ru9ST--nWmIl7IYlQP2i-2" value="" style="rounded=0;whiteSpace=wrap;html=1;" vertex="1" parent="1">
          <mxGeometry x="490" y="130" width="160" height="340" as="geometry" />
        </mxCell>
        <mxCell id="Ru9ST--nWmIl7IYlQP2i-3" value="" style="endArrow=classic;html=1;rounded=0;exitX=1;exitY=0.874;exitDx=0;exitDy=0;entryX=-0.031;entryY=0.876;entryDx=0;entryDy=0;exitPerimeter=0;entryPerimeter=0;" edge="1" parent="1" source="Ru9ST--nWmIl7IYlQP2i-1" target="Ru9ST--nWmIl7IYlQP2i-2">
          <mxGeometry width="50" height="50" relative="1" as="geometry">
            <mxPoint x="390" y="410" as="sourcePoint" />
            <mxPoint x="440" y="360" as="targetPoint" />
          </mxGeometry>
        </mxCell>
        <mxCell id="Ru9ST--nWmIl7IYlQP2i-4" value="" style="endArrow=classic;html=1;rounded=0;entryX=1.006;entryY=0.379;entryDx=0;entryDy=0;entryPerimeter=0;" edge="1" parent="1" target="Ru9ST--nWmIl7IYlQP2i-1">
          <mxGeometry width="50" height="50" relative="1" as="geometry">
            <mxPoint x="490" y="259" as="sourcePoint" />
            <mxPoint x="460" y="220" as="targetPoint" />
          </mxGeometry>
        </mxCell>
        <mxCell id="Ru9ST--nWmIl7IYlQP2i-5" value="" style="endArrow=classic;html=1;rounded=0;exitX=1;exitY=0.5;exitDx=0;exitDy=0;entryX=0;entryY=0.5;entryDx=0;entryDy=0;" edge="1" parent="1" source="Ru9ST--nWmIl7IYlQP2i-1" target="Ru9ST--nWmIl7IYlQP2i-2">
          <mxGeometry width="50" height="50" relative="1" as="geometry">
            <mxPoint x="414" y="330" as="sourcePoint" />
            <mxPoint x="464" y="280" as="targetPoint" />
          </mxGeometry>
        </mxCell>
        <mxCell id="Ru9ST--nWmIl7IYlQP2i-6" value="" style="endArrow=classic;html=1;rounded=0;exitX=1.006;exitY=0.091;exitDx=0;exitDy=0;exitPerimeter=0;" edge="1" parent="1" source="Ru9ST--nWmIl7IYlQP2i-1">
          <mxGeometry width="50" height="50" relative="1" as="geometry">
            <mxPoint x="380" y="159" as="sourcePoint" />
            <mxPoint x="490" y="161" as="targetPoint" />
          </mxGeometry>
        </mxCell>
        <mxCell id="Ru9ST--nWmIl7IYlQP2i-7" value="" style="endArrow=classic;html=1;rounded=0;exitX=0;exitY=0.25;exitDx=0;exitDy=0;entryX=1;entryY=0.25;entryDx=0;entryDy=0;" edge="1" parent="1" source="Ru9ST--nWmIl7IYlQP2i-2" target="Ru9ST--nWmIl7IYlQP2i-1">
          <mxGeometry width="50" height="50" relative="1" as="geometry">
            <mxPoint x="150" y="600" as="sourcePoint" />
            <mxPoint x="430" y="220" as="targetPoint" />
          </mxGeometry>
        </mxCell>
      </root>
    </mxGraphModel>
  </diagram>
</mxfile>
